<?xml version="1.0" encoding="UTF-8" standalone="no"?>
<!-- Created with Inkscape (http://www.inkscape.org/) -->

<svg
   width="16"
   height="16"
   viewBox="0 0 16 16"
   version="1.1"
   id="svg1"
   inkscape:version="1.3.2 (091e20e, 2023-11-25, custom)"
   sodipodi:docname="computer.svg"
   xmlns:inkscape="http://www.inkscape.org/namespaces/inkscape"
   xmlns:sodipodi="http://sodipodi.sourceforge.net/DTD/sodipodi-0.dtd"
   xmlns="http://www.w3.org/2000/svg"
   xmlns:svg="http://www.w3.org/2000/svg">
  <sodipodi:namedview
     id="namedview1"
     pagecolor="#ffffff"
     bordercolor="#666666"
     borderopacity="1.0"
     inkscape:showpageshadow="2"
     inkscape:pageopacity="0.0"
     inkscape:pagecheckerboard="0"
     inkscape:deskcolor="#d1d1d1"
     inkscape:document-units="px"
     inkscape:zoom="31.201087"
     inkscape:cx="8.1086919"
     inkscape:cy="5.9453057"
     inkscape:window-width="1920"
     inkscape:window-height="991"
     inkscape:window-x="-9"
     inkscape:window-y="-9"
     inkscape:window-maximized="1"
     inkscape:current-layer="layer1"
     showgrid="true">
    <inkscape:grid
       id="grid1"
       units="px"
       originx="0"
       originy="0"
       spacingx="1"
       spacingy="1"
       empcolor="#0099e5"
       empopacity="0.30196078"
       color="#0099e5"
       opacity="0.14901961"
       empspacing="5"
       dotted="false"
       gridanglex="30"
       gridanglez="30"
       visible="true" />
  </sodipodi:namedview>
  <defs
     id="defs1" />
  <g
     inkscape:label="Layer 1"
     inkscape:groupmode="layer"
     id="layer1">
    <g
       class=""
       style="fill:#00ff00;stroke-width:30.2098"
       id="g2"
       transform="matrix(0.03310175,0,0,0.03310175,-0.474048,-0.474048)">
      <path
         d="M 29.65,117.89 V 394.11 H 154.27 V 117.89 Z m 90.55,253.16 a 11,11 0 1 1 11,-11 11,11 0 0 1 -11,11 z m 18,-189.16 H 45.56 v -16 h 92.63 v 16 z m 0,-32 H 45.56 v -16 h 92.63 v 16 z m 153,188.51 h 73.1 v 39.71 h 41.74 v 16 H 249.48 v -16 h 41.74 V 338.4 Z M 173.2,117.89 V 322.4 H 482.35 V 117.89 H 173.19 Z M 466.35,306.4 H 189.19 V 133.89 h 277.16 z"
         fill="#fff"
         fill-opacity="1"
         id="path2"
         style="fill:#00ff00;stroke-width:30.2098" />
    </g>
  </g>
</svg>
