<?xml version="1.0" encoding="UTF-8" standalone="no"?>
<!-- Created with Inkscape (http://www.inkscape.org/) -->

<svg
   width="16"
   height="16"
   viewBox="0 0 16 16"
   version="1.1"
   id="svg1"
   inkscape:version="1.3.2 (091e20e, 2023-11-25, custom)"
   sodipodi:docname="load.svg"
   xmlns:inkscape="http://www.inkscape.org/namespaces/inkscape"
   xmlns:sodipodi="http://sodipodi.sourceforge.net/DTD/sodipodi-0.dtd"
   xmlns="http://www.w3.org/2000/svg"
   xmlns:svg="http://www.w3.org/2000/svg">
  <sodipodi:namedview
     id="namedview1"
     pagecolor="#ffffff"
     bordercolor="#666666"
     borderopacity="1.0"
     inkscape:showpageshadow="2"
     inkscape:pageopacity="0.0"
     inkscape:pagecheckerboard="0"
     inkscape:deskcolor="#d1d1d1"
     inkscape:document-units="px"
     inkscape:zoom="22.0625"
     inkscape:cx="8.6572238"
     inkscape:cy="4.9631728"
     inkscape:window-width="1920"
     inkscape:window-height="991"
     inkscape:window-x="-9"
     inkscape:window-y="-9"
     inkscape:window-maximized="1"
     inkscape:current-layer="layer1"
     showgrid="true">
    <inkscape:grid
       id="grid1"
       units="px"
       originx="0"
       originy="0"
       spacingx="1"
       spacingy="1"
       empcolor="#0099e5"
       empopacity="0.30196078"
       color="#0099e5"
       opacity="0.14901961"
       empspacing="5"
       dotted="false"
       gridanglex="30"
       gridanglez="30"
       visible="true" />
  </sodipodi:namedview>
  <defs
     id="defs1" />
  <g
     inkscape:label="Layer 1"
     inkscape:groupmode="layer"
     id="layer1">
    <g
       class=""
       style="fill:#b3b3b3;stroke-width:29.6876"
       id="g2"
       transform="matrix(0.03368403,0,0,0.03368403,-0.53046988,-0.61683344)">
      <path
         d="m 64,48 c -8.726,0 -16,7.274 -16,16 v 384 c 0,8.726 7.274,16 16,16 h 236.25 l -16,-16 H 64 V 64 h 63.375 v 97.53 c 0,3.924 3.443,7.095 7.72,7.095 h 169.81 c 4.277,0 7.72,-3.17 7.72,-7.094 V 64 h 69.22 c 0.428,0.318 0.8,0.548 1.467,1.094 2.05,1.675 4.962,4.264 8.375,7.406 6.827,6.283 15.65,14.837 24.313,23.5 8.663,8.663 17.217,17.486 23.5,24.313 3.142,3.413 5.73,6.324 7.406,8.374 0.546,0.668 0.776,1.04 1.094,1.47 V 366 h 16 V 128 c 0,-2.68 -0.657,-3.402 -1.03,-4.156 -0.375,-0.754 -0.725,-1.294 -1.095,-1.844 -0.74,-1.1 -1.575,-2.19 -2.594,-3.438 -2.036,-2.492 -4.768,-5.55 -8.03,-9.093 -6.524,-7.09 -15.155,-16 -23.938,-24.782 -8.782,-8.783 -17.692,-17.414 -24.78,-23.938 -3.545,-3.262 -6.6,-5.994 -9.094,-8.03 -1.247,-1.02 -2.337,-1.855 -3.438,-2.595 -0.55,-0.37 -1.09,-0.72 -1.844,-1.094 C 387.403,48.657 386.68,48 384.001,48 Z m 87.72,16 h 48.56 c 4.277,0 7.72,4.425 7.72,9.938 v 70.124 c 0,5.513 -3.443,9.938 -7.72,9.938 h -48.56 c -4.277,0 -7.72,-4.425 -7.72,-9.938 V 73.938 c 0,-5.512 3.443,-9.937 7.72,-9.937 z M 114,212 c -4.432,0 -8,3.568 -8,8 v 184 c 0,4.432 3.568,8 8,8 H 248.25 L 217.625,381.375 202.28,366 H 279 V 238 h 127 v -18 c 0,-4.432 -3.568,-8 -8,-8 z m 183,44 V 384 H 245.75 L 352,490.25 458.25,384 H 407 V 256 Z m 167,147.75 -16,16 V 448 h -28.25 l -16,16 H 448 c 8.726,0 16,-7.274 16,-16 z"
         fill="#fff"
         fill-opacity="1"
         id="path2"
         style="fill:#b3b3b3;stroke-width:29.6876" />
    </g>
  </g>
</svg>
