<?xml version="1.0" encoding="UTF-8" standalone="no"?>
<!-- Created with Inkscape (http://www.inkscape.org/) -->

<svg
   width="16"
   height="16"
   viewBox="0 0 16 16"
   version="1.1"
   id="svg1"
   inkscape:version="1.3.2 (091e20e, 2023-11-25, custom)"
   sodipodi:docname="treasure-map.svg"
   xmlns:inkscape="http://www.inkscape.org/namespaces/inkscape"
   xmlns:sodipodi="http://sodipodi.sourceforge.net/DTD/sodipodi-0.dtd"
   xmlns="http://www.w3.org/2000/svg"
   xmlns:svg="http://www.w3.org/2000/svg">
  <sodipodi:namedview
     id="namedview1"
     pagecolor="#ffffff"
     bordercolor="#666666"
     borderopacity="1.0"
     inkscape:showpageshadow="2"
     inkscape:pageopacity="0.0"
     inkscape:pagecheckerboard="0"
     inkscape:deskcolor="#d1d1d1"
     inkscape:document-units="px"
     inkscape:zoom="31.201087"
     inkscape:cx="8.2048424"
     inkscape:cy="6.0094061"
     inkscape:window-width="1920"
     inkscape:window-height="991"
     inkscape:window-x="-9"
     inkscape:window-y="-9"
     inkscape:window-maximized="1"
     inkscape:current-layer="layer1"
     showgrid="true">
    <inkscape:grid
       id="grid1"
       units="px"
       originx="0"
       originy="0"
       spacingx="1"
       spacingy="1"
       empcolor="#0099e5"
       empopacity="0.30196078"
       color="#0099e5"
       opacity="0.14901961"
       empspacing="5"
       dotted="false"
       gridanglex="30"
       gridanglez="30"
       visible="true" />
  </sodipodi:namedview>
  <defs
     id="defs1" />
  <g
     inkscape:label="Layer 1"
     inkscape:groupmode="layer"
     id="layer1">
    <g
       class=""
       style="fill:#ffd42a;stroke-width:31.4864"
       id="g2"
       transform="matrix(0.03175958,0,0,0.03175958,-0.08025249,-0.0643727)">
      <path
         d="m 227.4,34.7 c -10.1,0 -20.2,0.2 -30.2,0.5 l 6.1,65.6 -61.1,-62.5 c -31.3,2.5 -62.5,6.6 -93.8,12.5 l 34.2,28.4 -48,-0.6 c 35.1,100.2 6.9,182.6 -0.3,292.1 L 130,476.5 c 10,-1.3 19.9,-2.4 29.6,-3.3 l 21.5,-42.2 18.6,28.8 41.5,-33.5 0.8,43 c 82.9,-0.2 157.7,9.1 235.7,7.9 C 449.5,404.2 446.5,333.6 445.8,268 L 412.5,248.9 445.2,215 c -0.4,-21.3 -1.3,-42 -3.6,-61.9 l -57.4,0.7 50.2,-41.7 c -3.8,-15.5 -9,-30.4 -16.1,-44.7 L 388.8,43.5 C 335,38 281.2,34.6 227.4,34.7 Z m 58.7,37 c 10.6,24.75 21.1,49.5 31.7,74.3 7.5,-10.5 14.9,-21 22.4,-31.5 16,27.2 32,54.3 48,81.5 l -16.2,9.5 -33.3,-56.7 -42.5,59.4 -15.2,-10.9 24,-33.5 -21.9,-51.5 -24.6,40.1 12,22.6 -16.5,8.8 -18.3,-34.5 -24.8,58.2 -17.2,-7.4 32.5,-76.2 7.7,-18 c 4.8,9.2 9.6,18.3 14.5,27.4 12.5,-20.6 25.1,-41.11 37.7,-61.6 z M 91.2,128 c 6.72,1.6 13.4,3.4 19.2,5.3 -2.1,5.9 -4.1,11.8 -6.2,17.6 -5.79,-1.6 -11.72,-3.4 -16.9,-4.7 1.39,-6 2.62,-12.1 3.9,-18.2 z m 37.9,13.4 c 6.3,3.8 12,7.2 17,12.8 L 132.6,167 c -4,-3.7 -8.6,-7 -12.8,-9.4 z m 28.7,32.3 c 2.1,7.4 2.1,15.7 1.6,22.5 l -18.5,-2.4 c 0.1,-5.1 0.3,-10 -1,-14.5 z m -21.2,35.7 17.2,7.1 c -3.3,6.6 -5.1,12.7 -8.6,17.8 l -16.3,-9 c 2.6,-5.4 5.6,-10.8 7.7,-15.9 z m -16.5,34.1 17.7,6.1 c -1.5,5.4 -3,11.2 -3.6,16.2 l -18.6,-2 c 1.3,-7.5 2.1,-14 4.5,-20.3 z m 207.8,17.4 c 8.5,1 14.6,3 21.7,7.1 l -9.8,16 c -4.1,-2.8 -9.4,-3.8 -13.5,-4.5 z m -21.2,1.5 c 1.1,6.1 2.5,12.2 3.9,18.3 -5.9,1.3 -11.7,3.3 -16.5,5.1 l -6.8,-17.4 c 6.7,-2.4 13.5,-4.7 19.4,-6 z m -37.9,15.9 11,15.1 c -5.6,4 -11.8,7.8 -16.8,10.6 l -8.9,-16.4 c 5.1,-2.9 10.6,-6.3 14.7,-9.3 z M 135.3,281 c 1.5,4.7 4.2,9.2 6.9,12.1 l -13.8,12.6 c -5.5,-5.7 -9.5,-13.5 -11.2,-20.1 z m 230.3,3.3 c 3.5,6.4 6.8,12.7 8.7,19.1 l -17.8,5.6 c -2,-5.4 -4.3,-10.8 -6.8,-14.8 z m -127.4,10.9 6.9,17.3 c -6.4,2.7 -12.9,4.8 -18.6,6.5 l -5,-18 c 5.9,-1.6 11.3,-3.8 16.7,-5.8 z m -83.8,6.2 c 5.3,1.7 10.8,3.4 15.7,4.2 -1.2,6.1 -2,12.3 -2.8,18.5 -7,-1 -14.5,-3.3 -20.5,-5.7 z m 50,3.5 2.8,18.5 c -7.2,1.3 -13.4,1.6 -19.8,1.9 L 187,306.6 c 5.9,-0.2 11.6,-0.8 17.4,-1.7 z m 174.5,18 c 1,6.4 1.6,12.9 2.2,19.3 l -18.7,1.5 c -0.4,-6 -0.9,-11.9 -2,-17.8 z m -67.6,30.8 c 18.9,3.5 44.9,16.2 68.9,33.9 7.4,-9.9 14.4,-20.4 21.3,-31.1 l 30.1,12.9 c -4.7,12.3 -15,25.6 -28.6,37.2 17,16.2 30.9,34.5 37,53 -13.8,-18.1 -31.1,-31.8 -50.3,-42.8 -23.4,15.8 -52.7,25.9 -79.6,20.4 22.9,-4.4 40.6,-16.6 55.8,-32.6 -16.5,-7.5 -33.8,-13.9 -51.3,-20.1 z"
         fill="#fff"
         fill-opacity="1"
         id="path2"
         style="fill:#ffd42a;stroke-width:31.4864" />
    </g>
  </g>
</svg>
