<?xml version="1.0" encoding="UTF-8" standalone="no"?>
<!-- Created with Inkscape (http://www.inkscape.org/) -->

<svg
   width="128"
   height="128"
   viewBox="0 0 33.866667 33.866667"
   version="1.1"
   id="svg1"
   inkscape:export-filename="word_bubble_11.png"
   inkscape:export-xdpi="192"
   inkscape:export-ydpi="192"
   inkscape:version="1.3.2 (091e20e, 2023-11-25, custom)"
   sodipodi:docname="action_lines_1.svg"
   xmlns:inkscape="http://www.inkscape.org/namespaces/inkscape"
   xmlns:sodipodi="http://sodipodi.sourceforge.net/DTD/sodipodi-0.dtd"
   xmlns="http://www.w3.org/2000/svg"
   xmlns:svg="http://www.w3.org/2000/svg">
  <sodipodi:namedview
     id="namedview1"
     pagecolor="#ffffff"
     bordercolor="#666666"
     borderopacity="1.0"
     inkscape:showpageshadow="2"
     inkscape:pageopacity="0.0"
     inkscape:pagecheckerboard="0"
     inkscape:deskcolor="#d1d1d1"
     inkscape:document-units="mm"
     inkscape:zoom="1.9578168"
     inkscape:cx="94.237623"
     inkscape:cy="149.6565"
     inkscape:window-width="1450"
     inkscape:window-height="1020"
     inkscape:window-x="869"
     inkscape:window-y="138"
     inkscape:window-maximized="0"
     inkscape:current-layer="layer1"
     showgrid="true">
    <inkscape:grid
       id="grid1"
       units="px"
       originx="0"
       originy="0"
       spacingx="0.26458334"
       spacingy="0.26458334"
       empcolor="#0099e5"
       empopacity="0.30196078"
       color="#0099e5"
       opacity="0.14901961"
       empspacing="16"
       dotted="false"
       gridanglex="30"
       gridanglez="30"
       visible="true" />
  </sodipodi:namedview>
  <defs
     id="defs1" />
  <g
     inkscape:label="Layer 1"
     inkscape:groupmode="layer"
     id="layer1">
    <g
       id="g12"
       transform="matrix(0.67436707,0,0,0.67436707,-336.57711,-189.86041)"
       style="stroke-width:0.392344">
      <path
         id="path41698"
         style="fill:#000000;fill-opacity:1;fill-rule:nonzero;stroke:none;stroke-width:0.0523123"
         d="m 539.02132,307.11067 c 0.20933,-0.50133 1.75333,-3.456 1.16933,-3.99066 -0.684,-0.624 -1.6,1.668 -1.816,2.09333 -0.43733,0.864 -0.844,1.74 -1.248,2.61733 -0.13466,0.29067 -0.432,1.09067 -0.57866,1.444 -0.45067,-0.8 -1.02,-1.84933 -1.504,-2.72266 -0.848,-1.53067 -2.50934,-5.14534 -2.81734,-4.26534 -2.116,5.18134 -4.29066,9.744 -6.95333,14.668 -0.29467,0.54534 -5.112,8.724 -4.75733,8.944 0.62133,0.40667 5.652,-7.924 6.04266,-8.57866 2.28934,-3.844 4.30934,-7.824 6.06934,-11.936 1.04933,1.87333 2.08933,3.75466 3.13066,5.63333 0.29467,0.53067 0.808,1.90133 1.06934,1.17333 0.80133,-1.83066 1.42533,-3.236 2.19333,-5.08" />
      <path
         id="path41700"
         style="fill:#000000;fill-opacity:1;fill-rule:nonzero;stroke:none;stroke-width:0.0523123"
         d="m 508.32932,315.05601 c 0.0227,-3.74267 -0.28133,-7.472 -0.696,-11.18934 1.33733,1.264 2.67733,2.52534 4.01733,3.788 0.628,0.59334 1.25334,1.188 1.88267,1.776 0.29733,0.27867 0.956,0.98667 1.028,0.396 0.38533,-5.12133 0.74267,-9.74533 1.12133,-14.86666 0.15067,-2.05867 0.30667,-4.11867 0.41334,-6.18 0.0467,-0.91867 0.176,-1.92534 0.0413,-2.84267 -0.08,-0.556 -0.244,-0.988 -0.66133,-0.436 -0.32,0.424 -0.312,1.38267 -0.37867,1.87733 -0.20533,1.52 -0.33467,3.052 -0.46533,4.58 -0.45067,5.236 -0.78534,10.48134 -1.15467,15.724 -1.55467,-1.33866 -3.024,-2.796 -4.52667,-4.196 -0.704,-0.656 -1.40133,-1.31866 -2.10933,-1.96933 -0.49067,-0.452 -0.82267,-0.37067 -0.72533,0.17467 0.16133,2.016 0.492,3.12266 0.692,5.14133 0.22933,2.31867 0.38133,4.64667 0.452,6.976 0.0453,1.49733 0.0467,2.99467 0.0227,4.492 -0.008,0.44133 -0.14666,3.04533 0.264,2.872 0.68934,-0.30667 0.612,-2.28 0.65867,-2.86933 0.0867,-1.08134 0.11733,-2.16534 0.124,-3.248" />
      <path
         id="path41702"
         style="fill:#000000;fill-opacity:1;fill-rule:nonzero;stroke:none;stroke-width:0.0523123"
         d="m 542.24932,313.73601 c -0.97467,-1.188 -14.56267,11.44933 -15.61867,12.36666 -0.20533,0.17734 -1.92,1.39734 -1.796,1.79867 0.12267,0.396 0.676,-0.1 0.86267,-0.228 4.04667,-2.76667 7.77333,-6.13333 11.624,-9.16 0.44933,-0.35333 5.676,-3.868 4.928,-4.77733" />
    </g>
  </g>
</svg>
