<?xml version="1.0" encoding="UTF-8" standalone="no"?>
<!-- Created with Inkscape (http://www.inkscape.org/) -->

<svg
   width="128"
   height="128"
   viewBox="0 0 33.866667 33.866667"
   version="1.1"
   id="svg1"
   inkscape:export-filename="word_bubble_11.png"
   inkscape:export-xdpi="192"
   inkscape:export-ydpi="192"
   inkscape:version="1.3.2 (091e20e, 2023-11-25, custom)"
   sodipodi:docname="arrow_2.svg"
   xmlns:inkscape="http://www.inkscape.org/namespaces/inkscape"
   xmlns:sodipodi="http://sodipodi.sourceforge.net/DTD/sodipodi-0.dtd"
   xmlns="http://www.w3.org/2000/svg"
   xmlns:svg="http://www.w3.org/2000/svg">
  <sodipodi:namedview
     id="namedview1"
     pagecolor="#ffffff"
     bordercolor="#666666"
     borderopacity="1.0"
     inkscape:showpageshadow="2"
     inkscape:pageopacity="0.0"
     inkscape:pagecheckerboard="0"
     inkscape:deskcolor="#d1d1d1"
     inkscape:document-units="mm"
     inkscape:zoom="1.9578168"
     inkscape:cx="94.237623"
     inkscape:cy="149.6565"
     inkscape:window-width="1450"
     inkscape:window-height="1020"
     inkscape:window-x="869"
     inkscape:window-y="138"
     inkscape:window-maximized="0"
     inkscape:current-layer="layer1"
     showgrid="true">
    <inkscape:grid
       id="grid1"
       units="px"
       originx="0"
       originy="0"
       spacingx="0.26458334"
       spacingy="0.26458334"
       empcolor="#0099e5"
       empopacity="0.30196078"
       color="#0099e5"
       opacity="0.14901961"
       empspacing="16"
       dotted="false"
       gridanglex="30"
       gridanglez="30"
       visible="true" />
  </sodipodi:namedview>
  <defs
     id="defs1" />
  <g
     inkscape:label="Layer 1"
     inkscape:groupmode="layer"
     id="layer1">
    <g
       id="g21"
       transform="matrix(1.0288877,0,0,1.0288877,-364.20774,-206.04473)"
       style="stroke-width:0.257154">
      <path
         id="path41716"
         style="fill:#000000;fill-opacity:1;fill-rule:nonzero;stroke:none;stroke-width:0.0342872"
         d="m 363.58666,222.83068 c -0.33734,-0.38267 0.356,-0.69867 1.49866,-0.69867 1.07334,0 2.13467,-0.0773 3.172,-0.17733 l -2.09866,-16.59734 8.748,-3.62266 -1.75867,19.54133 c 0.82267,-0.21333 2.40933,-0.78 3.16133,-1.052 0.57734,-0.208 1.27067,-0.0667 1.01467,0.492 -1.308,2.864 -3.756,7.61733 -5.14667,10.16 -0.40266,0.73467 -0.77066,0.984 -0.98266,0.72533 -2.108,-2.58133 -5.78934,-6.71733 -7.608,-8.77066" />
      <path
         id="path41718"
         style="fill:#ffffff;fill-opacity:1;fill-rule:nonzero;stroke:none;stroke-width:0.0342872"
         d="m 371.96799,222.43601 1.396,-19.176 -6.72,2.30133 2.2,17.392 c -1.36133,0.164 -2.768,0.26134 -4.22533,0.28667 l 6.30266,7.296 4.78534,-9.16 c -1.192,0.42933 -2.44134,0.78 -3.73867,1.06" />
    </g>
  </g>
</svg>
