<?xml version="1.0" encoding="UTF-8" standalone="no"?>
<!-- Created with Inkscape (http://www.inkscape.org/) -->

<svg
   width="128"
   height="128"
   viewBox="0 0 33.866667 33.866667"
   version="1.1"
   id="svg1"
   inkscape:export-filename="word_bubble_11.png"
   inkscape:export-xdpi="192"
   inkscape:export-ydpi="192"
   inkscape:version="1.3.2 (091e20e, 2023-11-25, custom)"
   sodipodi:docname="arrow_1.svg"
   xmlns:inkscape="http://www.inkscape.org/namespaces/inkscape"
   xmlns:sodipodi="http://sodipodi.sourceforge.net/DTD/sodipodi-0.dtd"
   xmlns="http://www.w3.org/2000/svg"
   xmlns:svg="http://www.w3.org/2000/svg">
  <sodipodi:namedview
     id="namedview1"
     pagecolor="#ffffff"
     bordercolor="#666666"
     borderopacity="1.0"
     inkscape:showpageshadow="2"
     inkscape:pageopacity="0.0"
     inkscape:pagecheckerboard="0"
     inkscape:deskcolor="#d1d1d1"
     inkscape:document-units="mm"
     inkscape:zoom="1.9578168"
     inkscape:cx="94.237623"
     inkscape:cy="149.6565"
     inkscape:window-width="1450"
     inkscape:window-height="1020"
     inkscape:window-x="869"
     inkscape:window-y="138"
     inkscape:window-maximized="0"
     inkscape:current-layer="layer1"
     showgrid="true">
    <inkscape:grid
       id="grid1"
       units="px"
       originx="0"
       originy="0"
       spacingx="0.26458334"
       spacingy="0.26458334"
       empcolor="#0099e5"
       empopacity="0.30196078"
       color="#0099e5"
       opacity="0.14901961"
       empspacing="16"
       dotted="false"
       gridanglex="30"
       gridanglez="30"
       visible="true" />
  </sodipodi:namedview>
  <defs
     id="defs1" />
  <g
     inkscape:label="Layer 1"
     inkscape:groupmode="layer"
     id="layer1">
    <g
       id="g20"
       transform="matrix(1.1215713,0,0,1.1215713,-417.46055,-230.51388)"
       style="stroke-width:0.235904">
      <path
         id="path41712"
         style="fill:#000000;fill-opacity:1;fill-rule:nonzero;stroke:none;stroke-width:0.0314538"
         d="m 387.67999,227.59601 c -2.744,1.43333 -5.08133,3.336 -7.264,5.33467 -0.71867,0.65866 -1.124,1.06533 -1.33467,1.08266 -0.24266,0.02 -0.512,-0.968 -0.55466,-1.31066 -0.512,-4.15734 -0.61067,-7.008 -0.16667,-10.884 0.0413,-0.37467 0.14933,-1.336 0.45333,-1.43467 0.24267,-0.0773 0.45467,0.24133 1.13734,0.948 0.21866,0.22667 0.43466,0.43467 0.76933,0.66667 0.73467,-4.64534 2.68533,-8.60667 5.812,-11.79467 0.82267,-0.83867 1.73867,-1.63467 2.724,-2.37067 l 0.80133,-0.596 6.48134,8.84534 -1.39867,0.62533 c -3.34933,1.548 -5.98267,2.988 -7.94667,4.99067 -0.884,0.90133 -1.62933,1.91333 -2.264,3.07466 0.90667,0.44534 1.82,0.81467 2.596,1.06134 0.404,0.13066 1.47867,0.48133 1.50534,0.78666 0.0227,0.252 -0.98134,0.78134 -1.35067,0.97467" />
      <path
         id="path41714"
         style="fill:#ffffff;fill-opacity:1;fill-rule:nonzero;stroke:none;stroke-width:0.0314538"
         d="m 381.34532,223.16401 c -0.79466,-0.57333 -1.54,-1.20133 -2.15066,-1.888 -0.43734,3.78267 -0.54934,6.55733 0.16266,10.608 2.336,-2.44933 5.028,-4.364 7.77067,-5.78933 -1,-0.31467 -2.288,-0.85467 -3.59333,-1.56134 2.21066,-4.65866 5.66933,-6.84 11.09333,-9.34666 l -4.912,-7.24 c -4.59733,3.42533 -7.744,8.304 -8.37067,15.21733" />
    </g>
  </g>
</svg>
