<?xml version="1.0" encoding="UTF-8" standalone="no"?>
<!-- Created with Inkscape (http://www.inkscape.org/) -->

<svg
   width="128"
   height="128"
   viewBox="0 0 33.866667 33.866667"
   version="1.1"
   id="svg1"
   inkscape:export-filename="word_bubble_11.png"
   inkscape:export-xdpi="192"
   inkscape:export-ydpi="192"
   inkscape:version="1.3.2 (091e20e, 2023-11-25, custom)"
   sodipodi:docname="lightning_2.svg"
   xmlns:inkscape="http://www.inkscape.org/namespaces/inkscape"
   xmlns:sodipodi="http://sodipodi.sourceforge.net/DTD/sodipodi-0.dtd"
   xmlns="http://www.w3.org/2000/svg"
   xmlns:svg="http://www.w3.org/2000/svg">
  <sodipodi:namedview
     id="namedview1"
     pagecolor="#ffffff"
     bordercolor="#666666"
     borderopacity="1.0"
     inkscape:showpageshadow="2"
     inkscape:pageopacity="0.0"
     inkscape:pagecheckerboard="0"
     inkscape:deskcolor="#d1d1d1"
     inkscape:document-units="mm"
     inkscape:zoom="1.9578168"
     inkscape:cx="94.237623"
     inkscape:cy="149.6565"
     inkscape:window-width="1450"
     inkscape:window-height="1020"
     inkscape:window-x="869"
     inkscape:window-y="138"
     inkscape:window-maximized="0"
     inkscape:current-layer="layer1"
     showgrid="true">
    <inkscape:grid
       id="grid1"
       units="px"
       originx="0"
       originy="0"
       spacingx="0.26458334"
       spacingy="0.26458334"
       empcolor="#0099e5"
       empopacity="0.30196078"
       color="#0099e5"
       opacity="0.14901961"
       empspacing="16"
       dotted="false"
       gridanglex="30"
       gridanglez="30"
       visible="true" />
  </sodipodi:namedview>
  <defs
     id="defs1" />
  <g
     inkscape:label="Layer 1"
     inkscape:groupmode="layer"
     id="layer1">
    <path
       id="path10272"
       style="fill:#6e6e6e;fill-opacity:1;fill-rule:nonzero;stroke:none;stroke-width:0.0352777"
       d="m 16.933333,16.937133 c 0.0023,0 0.0038,-7.79e-4 0.0038,-0.0038 0,-0.0023 -0.0023,-0.0038 -0.0038,-0.0038 -0.0023,0 -0.0038,0.0023 -0.0038,0.0038 0,0.0033 0.0023,0.0038 0.0038,0.0038" />
    <path
       id="path10280"
       style="fill:#6e6e6e;fill-opacity:1;fill-rule:nonzero;stroke:none;stroke-width:0.0352777"
       d="m 16.933775,16.958303 c 0.01351,0 0.02497,-0.0115 0.02497,-0.02497 0,-0.01351 -0.0115,-0.02497 -0.02497,-0.02497 -0.01439,0 -0.02585,0.0115 -0.02585,0.02497 0,0.01351 0.0115,0.02497 0.02585,0.02497" />
    <path
       id="path10292"
       style="fill:#6e6e6e;fill-opacity:1;fill-rule:nonzero;stroke:none;stroke-width:0.0352777"
       d="m 16.933827,16.966523 c 0.01762,0 0.03319,-0.01439 0.03319,-0.03319 0,-0.01851 -0.01557,-0.03319 -0.03319,-0.03319 -0.01851,0 -0.03418,0.01439 -0.03418,0.03319 0,0.0188 0.01557,0.03319 0.03418,0.03319" />
    <path
       id="path10308"
       style="fill:#6e6e6e;fill-opacity:1;fill-rule:nonzero;stroke:none;stroke-width:0.0352777"
       d="m 16.933751,16.946258 c 0.0071,0 0.0115,-0.0062 0.0115,-0.01351 0,-0.0062 -0.0038,-0.01234 -0.0115,-0.01234 -0.0071,0 -0.01234,0.0062 -0.01234,0.01234 0,0.0071 0.0056,0.01351 0.01234,0.01351" />
    <path
       id="path30046"
       style="fill:#000000;fill-opacity:1;fill-rule:nonzero;stroke:none;stroke-width:0.0352777"
       d="M 5.9912711,29.385102 C 7.0750108,27.984327 10.364546,23.814117 10.364546,23.814117 L 8.5648838,22.643356 12.834553,17.636003 9.7024942,16.269416 17.734156,2.8066496 c 0.136772,-0.2300098 0.242442,-0.3812785 0.441367,-0.3014979 l 10.43432,4.3805261 c 0.271458,0.1139711 0.494209,0.3294717 0.09222,0.6620524 l -8.993135,7.2411368 3.517473,2.122919 -6.384301,5.055011 1.498167,0.920035 c 0,0 -9.5526186,6.336644 -12.4422368,8.151849 -1.4505012,0.911744 -1.1034203,-0.106733 0.093245,-1.653579" />
    <g
       id="g16"
       transform="matrix(0.7770569,0,0,0.7770569,-237.33159,-161.49604)"
       style="stroke-width:0.340494">
      <path
         id="path30048"
         style="fill:#ffffff;fill-opacity:1;fill-rule:nonzero;stroke:none;stroke-width:0.0453991"
         d="m 328.79599,211.94934 -9.65066,16.17467 4.21733,1.84 -5.624,6.59733 2.28,1.48267 -6.27333,7.99067 13.368,-8.91867 -1.82134,-1.11733 8.208,-6.49867 -4.51733,-2.72533 11.70266,-9.42267 -11.88933,-5.40267" />
      <path
         id="path30050"
         style="fill:#000000;fill-opacity:1;fill-rule:nonzero;stroke:none;stroke-width:0.0453991"
         d="m 317.44399,247.25334 c -0.32533,-0.22 0.404,-0.59466 8.124,-4.788 0.35467,-0.20933 0.80267,-0.47466 1.368,-0.808 0.576,-0.34933 1.03334,-0.616 1.392,-0.812 7.592,-4.08266 8.256,-4.244 8.41867,-3.94 0.192,0.35867 -0.82934,0.95467 -7.968,4.78134 -0.36267,0.19466 -0.82933,0.444 -1.41867,0.75866 -0.58266,0.31067 -1.04133,0.556 -1.40133,0.74934 -7.008,3.73733 -8.192,4.276 -8.51467,4.05866" />
      <path
         id="path30052"
         style="fill:#000000;fill-opacity:1;fill-rule:nonzero;stroke:none;stroke-width:0.0453991"
         d="m 334.58399,241.18668 c 0.16933,0.39466 -0.27867,0.82533 -4.796,2.492 -2.816,1.03866 -3.38666,1.36933 -3.50133,1.10133 -0.116,-0.26667 0.34133,-0.368 3.176,-1.71733 4.09333,-1.94667 4.86933,-2.46 5.12133,-1.876" />
    </g>
  </g>
</svg>
