<?xml version="1.0" encoding="UTF-8" standalone="no"?>
<!-- Created with Inkscape (http://www.inkscape.org/) -->

<svg
   width="128"
   height="128"
   viewBox="0 0 33.866667 33.866667"
   version="1.1"
   id="svg1"
   inkscape:export-filename="word_bubble_11.png"
   inkscape:export-xdpi="192"
   inkscape:export-ydpi="192"
   inkscape:version="1.3.2 (091e20e, 2023-11-25, custom)"
   sodipodi:docname="puff_1.svg"
   xmlns:inkscape="http://www.inkscape.org/namespaces/inkscape"
   xmlns:sodipodi="http://sodipodi.sourceforge.net/DTD/sodipodi-0.dtd"
   xmlns="http://www.w3.org/2000/svg"
   xmlns:svg="http://www.w3.org/2000/svg">
  <sodipodi:namedview
     id="namedview1"
     pagecolor="#ffffff"
     bordercolor="#666666"
     borderopacity="1.0"
     inkscape:showpageshadow="2"
     inkscape:pageopacity="0.0"
     inkscape:pagecheckerboard="0"
     inkscape:deskcolor="#d1d1d1"
     inkscape:document-units="mm"
     inkscape:zoom="1.9578168"
     inkscape:cx="94.237623"
     inkscape:cy="149.6565"
     inkscape:window-width="1450"
     inkscape:window-height="1020"
     inkscape:window-x="869"
     inkscape:window-y="138"
     inkscape:window-maximized="0"
     inkscape:current-layer="layer1"
     showgrid="true">
    <inkscape:grid
       id="grid1"
       units="px"
       originx="0"
       originy="0"
       spacingx="0.26458334"
       spacingy="0.26458334"
       empcolor="#0099e5"
       empopacity="0.30196078"
       color="#0099e5"
       opacity="0.14901961"
       empspacing="16"
       dotted="false"
       gridanglex="30"
       gridanglez="30"
       visible="true" />
  </sodipodi:namedview>
  <defs
     id="defs1" />
  <g
     inkscape:label="Layer 1"
     inkscape:groupmode="layer"
     id="layer1">
    <path
       id="path30036"
       style="fill:#000000;fill-opacity:1;fill-rule:nonzero;stroke:none;stroke-width:0.0352777"
       d="M 2.5782119,15.264242 C 2.5669666,3.8616962 18.640565,-0.2735232 21.054822,6.7028827 24.80089,4.6928998 31.233238,8.7884394 31.288024,15.264242 c 0.05665,6.710048 -5.410355,10.006498 -9.551229,7.788712 1.675612,5.219555 -3.022552,7.858615 -7.395786,7.492131 C 8.5730486,30.061484 5.285649,24.265748 7.8123155,21.024074 5.1292324,21.160088 2.5817943,19.031093 2.5782119,15.264242" />
    <path
       id="path30038"
       style="fill:#ffffff;fill-opacity:1;fill-rule:nonzero;stroke:none;stroke-width:0.0352777"
       d="M 4.3713241,15.416894 C 4.3600789,5.0155743 18.808894,1.5887599 21.011562,7.9531008 c 3.793299,-2.2026682 9.492673,1.5585005 9.541794,7.4637932 0.05301,6.11688 -6.36056,9.298103 -10.276641,5.750396 3.426798,6.239663 -2.070451,7.939843 -5.504816,7.953059 C 9.7544817,29.141229 5.9615633,24.102932 9.3870547,20.678018 6.9401123,20.80086 4.3751101,18.851258 4.3713241,15.416894" />
  </g>
</svg>
