<?xml version="1.0" encoding="UTF-8" standalone="no"?>
<!-- Created with Inkscape (http://www.inkscape.org/) -->

<svg
   width="128"
   height="128"
   viewBox="0 0 33.866667 33.866667"
   version="1.1"
   id="svg1"
   inkscape:export-filename="word_bubble_11.png"
   inkscape:export-xdpi="192"
   inkscape:export-ydpi="192"
   inkscape:version="1.3.2 (091e20e, 2023-11-25, custom)"
   sodipodi:docname="icon_1.svg"
   xmlns:inkscape="http://www.inkscape.org/namespaces/inkscape"
   xmlns:sodipodi="http://sodipodi.sourceforge.net/DTD/sodipodi-0.dtd"
   xmlns="http://www.w3.org/2000/svg"
   xmlns:svg="http://www.w3.org/2000/svg">
  <sodipodi:namedview
     id="namedview1"
     pagecolor="#ffffff"
     bordercolor="#666666"
     borderopacity="1.0"
     inkscape:showpageshadow="2"
     inkscape:pageopacity="0.0"
     inkscape:pagecheckerboard="0"
     inkscape:deskcolor="#d1d1d1"
     inkscape:document-units="mm"
     inkscape:zoom="1.9578168"
     inkscape:cx="94.237623"
     inkscape:cy="149.6565"
     inkscape:window-width="1450"
     inkscape:window-height="1020"
     inkscape:window-x="869"
     inkscape:window-y="138"
     inkscape:window-maximized="0"
     inkscape:current-layer="layer1"
     showgrid="true">
    <inkscape:grid
       id="grid1"
       units="px"
       originx="0"
       originy="0"
       spacingx="0.26458334"
       spacingy="0.26458334"
       empcolor="#0099e5"
       empopacity="0.30196078"
       color="#0099e5"
       opacity="0.14901961"
       empspacing="16"
       dotted="false"
       gridanglex="30"
       gridanglez="30"
       visible="true" />
  </sodipodi:namedview>
  <defs
     id="defs1" />
  <g
     inkscape:label="Layer 1"
     inkscape:groupmode="layer"
     id="layer1">
    <g
       id="g36"
       transform="matrix(1.1494762,0,0,1.1494762,-492.86075,-38.038005)"
       style="stroke-width:0.230177">
      <path
         id="path41678"
         style="fill:#000000;fill-opacity:1;fill-rule:nonzero;stroke:none;stroke-width:0.0306902"
         d="m 443.29732,60.713347 c -0.67733,-1.936 -1.972,-5.077333 -3.48533,-5.574667 -1.332,-0.437333 -4.89467,1.184 -5.776,1.533334 -0.50933,0.201333 -1.08267,0.129333 -0.0253,-0.837334 2.41866,-2.388 3.996,-4.765333 3.83066,-5.573333 -0.20266,-1.489333 -4.06933,-3.054667 -5.276,-3.384 -1.36533,-0.412 -1.37733,-0.765333 0.02,-0.856 2.79467,-0.202666 4.84667,-1.036 5.97334,-2.093333 1.652,-1.552 2.58666,-4.876 3.04533,-8.94 0.0973,-0.868 0.51867,-0.896 0.61733,-0.334667 1.04,5.909334 3.10534,7.406667 4.98134,7.276 1.18266,-0.08267 3.20133,-0.825333 5.176,-1.778666 1.22133,-0.590667 1.41066,-0.317334 0.63333,0.813333 -1.972,2.869333 -3.2,5.112 -3.17333,6.666666 0.0267,1.694667 2.476,3.685334 4.86533,5.773334 1.10667,0.966666 1.04933,1.216 -0.47733,0.926666 -2.408,-0.458666 -6.61067,-1.341333 -7.60534,-0.745333 -0.716,0.430667 -1.652,3.22 -2.52933,7.474666 -0.11467,0.556 -0.564,0.317334 -0.79467,-0.346666" />
      <path
         id="path41680"
         style="fill:#ffffff;fill-opacity:1;fill-rule:nonzero;stroke:none;stroke-width:0.0306902"
         d="m 441.92132,36.518681 c -0.47066,3.969333 -1.30133,5.978666 -3.124,7.689333 -1.50666,1.416 -3.97333,1.972 -6.48933,2.153333 3.20267,0.874667 5.512,1.889333 5.97067,3.441333 0.34666,1.173334 -1.84667,4.153334 -4.00934,6.288 2.24,-1.198666 4.31334,-2.381333 5.53734,-2.192 1.72,0.265334 2.76933,2.278667 3.65333,4.844 0.44267,-3.056 1.58933,-5.773333 2.66267,-6.488 0.692,-0.461333 3.77866,-0.26 7.18133,0.721334 -2.624,-1.817334 -4.672,-4.186667 -4.70133,-5.594667 -0.0227,-1.114666 0.75066,-3.404 3.08666,-6.402666 -6.20133,3.201333 -8.93466,1.037333 -9.768,-4.46" />
    </g>
  </g>
</svg>
