<?xml version="1.0" encoding="UTF-8" standalone="no"?>
<!-- Created with Inkscape (http://www.inkscape.org/) -->

<svg
   width="128"
   height="128"
   viewBox="0 0 33.866667 33.866667"
   version="1.1"
   id="svg1"
   inkscape:export-filename="word_bubble_11.png"
   inkscape:export-xdpi="192"
   inkscape:export-ydpi="192"
   inkscape:version="1.3.2 (091e20e, 2023-11-25, custom)"
   sodipodi:docname="star_2.svg"
   xmlns:inkscape="http://www.inkscape.org/namespaces/inkscape"
   xmlns:sodipodi="http://sodipodi.sourceforge.net/DTD/sodipodi-0.dtd"
   xmlns="http://www.w3.org/2000/svg"
   xmlns:svg="http://www.w3.org/2000/svg">
  <sodipodi:namedview
     id="namedview1"
     pagecolor="#ffffff"
     bordercolor="#666666"
     borderopacity="1.0"
     inkscape:showpageshadow="2"
     inkscape:pageopacity="0.0"
     inkscape:pagecheckerboard="0"
     inkscape:deskcolor="#d1d1d1"
     inkscape:document-units="mm"
     inkscape:zoom="1.9578168"
     inkscape:cx="94.237623"
     inkscape:cy="149.6565"
     inkscape:window-width="1450"
     inkscape:window-height="1020"
     inkscape:window-x="869"
     inkscape:window-y="138"
     inkscape:window-maximized="0"
     inkscape:current-layer="layer1"
     showgrid="true">
    <inkscape:grid
       id="grid1"
       units="px"
       originx="0"
       originy="0"
       spacingx="0.26458334"
       spacingy="0.26458334"
       empcolor="#0099e5"
       empopacity="0.30196078"
       color="#0099e5"
       opacity="0.14901961"
       empspacing="16"
       dotted="false"
       gridanglex="30"
       gridanglez="30"
       visible="true" />
  </sodipodi:namedview>
  <defs
     id="defs1" />
  <g
     inkscape:label="Layer 1"
     inkscape:groupmode="layer"
     id="layer1">
    <g
       id="g35"
       transform="matrix(1.3323716,0,0,1.3323716,-411.58778,-57.637857)"
       style="stroke-width:0.198581">
      <path
         id="path41686"
         style="fill:#000000;fill-opacity:1;fill-rule:nonzero;stroke:none;stroke-width:0.0264774"
         d="m 330.46133,50.77868 c -0.39867,-0.306666 -2.95334,0.442667 -5.992,1.554667 -1.57867,-4.196 -3.192,-8.005333 -3.60534,-7.849333 -0.41333,0.156 -1.556,4.714666 -2.68666,10.018666 -2.996,1.316 -5.57867,2.724 -5.40267,3.062667 0.15733,0.306667 1.90533,1.177333 4.15333,2.02 -0.85333,4.402666 -1.41066,7.758666 -1.14133,7.869333 0.29067,0.12 3.00267,-2.896 6.07333,-6.429333 2.97067,0.969333 5.71067,1.726666 5.89067,1.532 0.164,-0.174667 -0.544,-2.522667 -1.68267,-5.804 2.604,-3.153333 4.62534,-5.794667 4.39334,-5.974667" />
      <path
         id="path41688"
         style="fill:#ffffff;fill-opacity:1;fill-rule:nonzero;stroke:none;stroke-width:0.0264774"
         d="m 328.94799,51.548014 c -0.34266,-0.264 -2.532,0.378666 -5.13733,1.332 -1.352,-3.597334 -2.73467,-6.862667 -3.08933,-6.728 -0.356,0.134667 -1.40667,4.38 -2.376,8.928 -2.568,1.126666 -4.54534,2.156 -4.396,2.446666 0.136,0.262667 1.636,0.910667 3.564,1.633334 -0.732,3.771999 -1.22934,6.921333 -0.99734,7.015999 0.248,0.102667 2.65467,-2.490666 5.28667,-5.518666 2.54667,0.832 4.76667,1.453333 4.92267,1.285333 0.13866,-0.148 -0.568,-2.461333 -1.544,-5.273333 2.232,-2.702667 3.964,-4.966667 3.76666,-5.121333" />
    </g>
  </g>
</svg>
