<?xml version="1.0" encoding="UTF-8" standalone="no"?>
<!-- Created with Inkscape (http://www.inkscape.org/) -->

<svg
   width="64"
   height="64"
   viewBox="0 0 64 64"
   version="1.1"
   id="svg1"
   inkscape:version="1.3.2 (091e20e, 2023-11-25, custom)"
   sodipodi:docname="plus.svg"
   xmlns:inkscape="http://www.inkscape.org/namespaces/inkscape"
   xmlns:sodipodi="http://sodipodi.sourceforge.net/DTD/sodipodi-0.dtd"
   xmlns="http://www.w3.org/2000/svg"
   xmlns:svg="http://www.w3.org/2000/svg">
  <sodipodi:namedview
     id="namedview1"
     pagecolor="#ffffff"
     bordercolor="#666666"
     borderopacity="1.0"
     inkscape:showpageshadow="2"
     inkscape:pageopacity="0.0"
     inkscape:pagecheckerboard="0"
     inkscape:deskcolor="#d1d1d1"
     inkscape:document-units="px"
     inkscape:zoom="5.515625"
     inkscape:cx="7.9773371"
     inkscape:cy="0.81586402"
     inkscape:window-width="1920"
     inkscape:window-height="991"
     inkscape:window-x="-9"
     inkscape:window-y="-9"
     inkscape:window-maximized="1"
     inkscape:current-layer="layer1"
     showgrid="true">
    <inkscape:grid
       id="grid1"
       units="px"
       originx="0"
       originy="0"
       spacingx="1"
       spacingy="1"
       empcolor="#0099e5"
       empopacity="0.30196078"
       color="#0099e5"
       opacity="0.14901961"
       empspacing="5"
       dotted="false"
       gridanglex="30"
       gridanglez="30"
       visible="true" />
  </sodipodi:namedview>
  <defs
     id="defs1" />
  <g
     inkscape:label="Layer 1"
     inkscape:groupmode="layer"
     id="layer1">
    <g
       class=""
       style="fill:#b3b3b3;stroke-width:8.22339"
       id="g2"
       transform="matrix(0.12161012,0,0,0.12159829,1.2483278,1.2535568)">
      <path
         d="m 429.5,30.83 h -0.8 c -2.2,0.15 -3.4,0.65 -4.6,1.89 l -27.6,27.58 55.2,55.2 27.5,-27.63 c 1.3,-1.23 1.8,-2.36 1.9,-4.57 0.2,-2.21 -0.3,-5.43 -1.8,-9.16 -2.8,-7.46 -9.2,-16.67 -17,-24.45 -7.8,-7.78 -17,-14.18 -24.5,-17.05 -3.2,-1.26 -6.1,-1.81 -8.3,-1.83 z m -320.6,0.32 -77.75,77.75 9.91,9.9 27.56,-27.55 12.74,12.75 -27.53,27.6 21.16,21.1 27.51,-27.5 12.8,12.8 -27.55,27.5 21.15,21.1 50.2,-50.1 12.8,12.8 -50.2,50.1 21.2,21.2 27.5,-27.6 12.8,12.8 -27.5,27.6 21.1,21.1 27.5,-27.5 12.8,12.8 -27.5,27.5 21.1,21.2 50.2,-50.2 12.8,12.8 -50.2,50.2 21.2,21.1 27.5,-27.5 12.8,12.8 -27.5,27.5 21.1,21.2 27.6,-27.6 12.8,12.8 -27.6,27.6 21.1,21.1 50.2,-50.2 12.8,12.8 -50.2,50.2 21.2,21.1 27.5,-27.5 12.8,12.8 -27.5,27.5 21.1,21.2 27.6,-27.6 12.8,12.8 -27.6,27.6 9.9,9.9 77.8,-77.8 z m 274.9,41.89 -9.9,9.91 9.9,9.9 12.7,12.75 9.9,9.9 12.7,12.7 9.9,9.9 9.9,-9.9 z m -22.6,22.63 -81.2,81.13 9.9,9.9 81.2,-81.1 z m 22.6,22.63 -81.1,81.2 9.9,9.8 81.1,-81.1 z m 22.6,22.6 -81.1,81.2 9.9,9.9 81.1,-81.2 z M 176.8,280 72.68,384.2 l 9.9,9.9 104.12,-104.2 z m 22.6,22.7 -104.09,104.1 9.89,9.9 104.1,-104.1 z m 22.7,22.6 -104.2,104.1 9.9,9.9 L 232,335.2 Z m -158.86,74.9 -12.12,30.3 30.4,30.4 30.28,-12.1 -6.6,-6.6 -12.72,-12.8 -9.9,-9.9 -12.73,-12.7 z m -19.39,48.5 -13,32.5 32.48,-13 z"
         fill="#fff"
         fill-opacity="1"
         id="path2"
         style="fill:#b3b3b3;stroke-width:8.22339" />
    </g>
  </g>
</svg>
